<?xml version="1.0" encoding="UTF-8"?>
<svg version="1.1" xmlns="http://www.w3.org/2000/svg" width="32" height="32">
<path d="M0 0 C2.01822917 0.06510417 4.03645833 0.13020833 6.0546875 0.1953125 C6.0546875 1.8453125 6.0546875 3.4953125 6.0546875 5.1953125 C4.7346875 5.5253125 3.4146875 5.8553125 2.0546875 6.1953125 C1.7246875 7.8453125 1.3946875 9.4953125 1.0546875 11.1953125 C2.7046875 11.1953125 4.3546875 11.1953125 6.0546875 11.1953125 C6.0546875 12.8453125 6.0546875 14.4953125 6.0546875 16.1953125 C4.4046875 16.1953125 2.7546875 16.1953125 1.0546875 16.1953125 C1.0546875 20.1553125 1.0546875 24.1153125 1.0546875 28.1953125 C-0.5953125 28.1953125 -2.2453125 28.1953125 -3.9453125 28.1953125 C-3.9453125 24.2353125 -3.9453125 20.2753125 -3.9453125 16.1953125 C-5.5953125 16.1953125 -7.2453125 16.1953125 -8.9453125 16.1953125 C-8.9453125 14.5453125 -8.9453125 12.8953125 -8.9453125 11.1953125 C-7.2953125 11.1953125 -5.6453125 11.1953125 -3.9453125 11.1953125 C-3.96851563 10.56882812 -3.99171875 9.94234375 -4.015625 9.296875 C-4.04269531 8.07097656 -4.04269531 8.07097656 -4.0703125 6.8203125 C-4.09351563 6.00820312 -4.11671875 5.19609375 -4.140625 4.359375 C-3.87619321 1.42947081 -2.98113708 0.29931095 0 0 Z " fill="#000000" transform="translate(16.9453125,1.8046875)"/>
</svg>
