<?xml version="1.0" encoding="UTF-8"?>
<svg version="1.1" xmlns="http://www.w3.org/2000/svg" width="32" height="32">
<path d="M0 0 C0.60328125 0.27714844 1.2065625 0.55429688 1.828125 0.83984375 C2.62734375 1.20207031 3.4265625 1.56429688 4.25 1.9375 C5.43335938 2.47697266 5.43335938 2.47697266 6.640625 3.02734375 C8.75823698 3.90033279 10.76669362 4.51338508 13 5 C13.144375 4.360625 13.28875 3.72125 13.4375 3.0625 C14 1 14 1 15 0 C17.01964199 -0.07244053 19.04167124 -0.08377188 21.0625 -0.0625 C22.16722656 -0.05347656 23.27195312 -0.04445312 24.41015625 -0.03515625 C25.26480469 -0.02355469 26.11945312 -0.01195312 27 0 C28.76961945 6.21079343 26.40207094 11.23822187 24 17 C21.70035401 20.59319685 19.907217 22.40127982 16 24 C10.78064095 24.66894915 6.40418267 24.82598981 1.8125 22.125 C0 20 0 20 0 18 C0.99 17.67 1.98 17.34 3 17 C2.57093295 14.51141113 2.25103592 13.25103592 0.4375 11.4375 C-0.036875 10.963125 -0.51125 10.48875 -1 10 C-1 9.01 -1 8.02 -1 7 C-1.020625 5.96875 -1.04125 4.9375 -1.0625 3.875 C-1 1 -1 1 0 0 Z " fill="#000000" transform="translate(3,4)"/>
</svg>
